<?xml version="1.0" encoding="UTF-8"?>
<svg id="Layer_2" data-name="Layer 2" xmlns="http://www.w3.org/2000/svg" xmlns:xlink="http://www.w3.org/1999/xlink" viewBox="0 0 111.57 111.57">
  <defs>
    <style>
      .cls-1 {
        clip-path: url(#clippath-6);
      }

      .cls-2 {
        clip-path: url(#clippath-7);
      }

      .cls-3 {
        clip-path: url(#clippath-4);
      }

      .cls-4 {
        fill: url(#linear-gradient-2);
      }

      .cls-5 {
        fill: #fff;
      }

      .cls-6 {
        fill: none;
      }

      .cls-7 {
        fill: url(#linear-gradient-4);
      }

      .cls-8 {
        fill: url(#linear-gradient-3);
      }

      .cls-9 {
        clip-path: url(#clippath-1);
      }

      .cls-10 {
        fill: url(#linear-gradient-5);
      }

      .cls-11 {
        clip-path: url(#clippath-5);
      }

      .cls-12 {
        clip-path: url(#clippath-8);
      }

      .cls-13 {
        clip-path: url(#clippath-3);
      }

      .cls-14 {
        fill: #161170;
      }

      .cls-15 {
        clip-path: url(#clippath-2);
      }

      .cls-16 {
        opacity: .57;
      }

      .cls-17 {
        fill: url(#linear-gradient);
      }

      .cls-18 {
        clip-path: url(#clippath);
      }
    </style>
    <clipPath id="clippath">
      <path class="cls-6" d="M35.7,55.79c0,17.76,8.05,33.54,20.52,43.57,12.47-10.02,20.52-25.81,20.52-43.57s-8.05-33.54-20.52-43.56c-12.47,10.02-20.52,25.81-20.52,43.56"/>
    </clipPath>
    <linearGradient id="linear-gradient" x1="-1043.81" y1="1105.14" x2="-1042.81" y2="1105.14" gradientTransform="translate(42872.98 45409.91) scale(41.04 -41.04)" gradientUnits="userSpaceOnUse">
      <stop offset="0" stop-color="#ae8a5e"/>
      <stop offset=".18" stop-color="#bc996a"/>
      <stop offset=".47" stop-color="#ccab79"/>
      <stop offset=".67" stop-color="#d2b27f"/>
      <stop offset=".92" stop-color="#dbbf8d"/>
      <stop offset="1" stop-color="#dfc593"/>
    </linearGradient>
    <clipPath id="clippath-1">
      <rect class="cls-6" x="17.87" y="25.47" width="44.33" height="69.98"/>
    </clipPath>
    <clipPath id="clippath-2">
      <path class="cls-6" d="M21.93,67.02c6.39,14.26,19.17,24.36,33.79,28.42,7.4-12.04,8.82-27.29,2.43-41.55-6.39-14.26-19.17-24.36-33.79-28.43-7.4,12.04-8.82,27.29-2.43,41.55"/>
    </clipPath>
    <linearGradient id="linear-gradient-2" x1="-1045.3" y1="1103.51" x2="-1044.3" y2="1103.51" gradientTransform="translate(46355.06 48978.28) scale(44.33 -44.33)" xlink:href="#linear-gradient"/>
    <clipPath id="clippath-3">
      <rect class="cls-6" x="7.66" y="40.82" width="38.56" height="56.88"/>
    </clipPath>
    <clipPath id="clippath-4">
      <path class="cls-6" d="M13.41,75.6c6.71,11.59,17.97,19.42,29.98,22.11,4.44-10.39,3.79-23.18-2.92-34.77-6.71-11.59-17.97-19.42-29.98-22.11-4.44,10.39-3.78,23.18,2.92,34.77"/>
    </clipPath>
    <linearGradient id="linear-gradient-3" x1="-1042.52" y1="1106.55" x2="-1041.52" y2="1106.55" gradientTransform="translate(40207.72 42738.1) scale(38.56 -38.56)" xlink:href="#linear-gradient"/>
    <clipPath id="clippath-5">
      <rect class="cls-6" x="49.4" y="25.4" width="44.43" height="70.14"/>
    </clipPath>
    <clipPath id="clippath-6">
      <path class="cls-6" d="M89.77,67.05c-6.41,14.29-19.22,24.42-33.86,28.49-7.42-12.07-8.84-27.35-2.43-41.65,6.41-14.3,19.22-24.42,33.86-28.49,7.42,12.07,8.84,27.35,2.43,41.65"/>
    </clipPath>
    <linearGradient id="linear-gradient-4" x1="-1045.34" y1="1103.47" x2="-1044.34" y2="1103.47" gradientTransform="translate(46494.77 49088.44) scale(44.43 -44.43)" xlink:href="#linear-gradient"/>
    <clipPath id="clippath-7">
      <rect class="cls-6" x="65.35" y="40.31" width="38.56" height="56.88"/>
    </clipPath>
    <clipPath id="clippath-8">
      <path class="cls-6" d="M98.16,75.09c-6.71,11.59-17.97,19.42-29.98,22.11-4.44-10.39-3.79-23.18,2.92-34.77,6.71-11.59,17.97-19.42,29.98-22.11,4.44,10.39,3.78,23.18-2.92,34.77"/>
    </clipPath>
    <linearGradient id="linear-gradient-5" x1="-1042.52" y1="1106.55" x2="-1041.52" y2="1106.55" gradientTransform="translate(40265.41 42737.59) scale(38.56 -38.56)" xlink:href="#linear-gradient"/>
  </defs>
  <g id="Layer_1-2" data-name="Layer 1">
    <circle class="cls-14" cx="55.79" cy="55.79" r="55.79"/>
    <g>
      <g class="cls-18">
        <rect class="cls-17" x="35.7" y="12.22" width="41.04" height="87.13"/>
      </g>
      <g class="cls-16">
        <g class="cls-9">
          <g class="cls-15">
            <rect class="cls-4" x="15.54" y="25.47" width="49" height="69.97"/>
          </g>
        </g>
      </g>
      <g class="cls-16">
        <g class="cls-13">
          <g class="cls-3">
            <rect class="cls-8" x="6.05" y="40.82" width="41.79" height="56.88"/>
          </g>
        </g>
      </g>
      <g class="cls-16">
        <g class="cls-11">
          <g class="cls-1">
            <rect class="cls-7" x="47.06" y="25.4" width="49.11" height="70.13"/>
          </g>
        </g>
      </g>
      <g class="cls-16">
        <g class="cls-2">
          <g class="cls-12">
            <rect class="cls-10" x="63.74" y="40.31" width="41.78" height="56.88"/>
          </g>
        </g>
      </g>
      <path class="cls-5" d="M60.77,56.34c-7.27-9.19-8.64-14.54-8.64-14.54,1.51-.34,2.4-1.3,2.4-1.3,1.71-1.99.55-4.94.55-4.94.69-1.37,3.91-.27,3.91-.27-4.46-5.01-10.36-2.06-10.36-2.06-9.69,4.73-2.33,16.66-2.33,16.66,11.84,28.71-.13,40.98-8.83,46.04,4.95,2.11,11.51,3.34,17.23,3.34,5.12,0,10.61-.77,15.13-2.48,10.61-15.26-2.19-31.76-9.06-40.45M50.38,37.96c-.79,0-1.44-.64-1.44-1.44s.64-1.44,1.44-1.44,1.44.65,1.44,1.44-.64,1.44-1.44,1.44"/>
    </g>
  </g>
</svg>